<svg version="1.1" xmlns="http://www.w3.org/2000/svg" xmlns:xlink="http://www.w3.org/1999/xlink" width="727" height="542" viewBox="0,0,727,542"><g transform="translate(119,91.16666)"><g data-paper-data="{&quot;isPaintingLayer&quot;:true}" fill-rule="nonzero" stroke-linecap="butt" stroke-linejoin="miter" stroke-miterlimit="10" stroke-dasharray="" stroke-dashoffset="0" style="mix-blend-mode: normal"><path d="M-118,449.83334v-540h725v540z" fill="#000000" stroke="#000000" stroke-width="2"/><path d="M318.97027,149.06802c-1.27812,0.51125 -1.78937,-0.76687 -1.78937,-0.76687l-0.15691,-0.40606c-0.88518,0.37214 -1.71989,0.93952 -2.54837,1.3535c-1.9392,0.969 -3.57485,1.80093 -5.38448,2.91456c-1.29149,0.79477 -2.92085,1.29686 -3.90941,2.58382c-1.36068,1.77141 -1.89818,3.93905 -2.43257,6.09968c0.03967,0.01794 0.0778,0.03654 0.11445,0.05577c1.00363,-0.57381 2.57477,-1.46713 2.71939,-1.51445c0.90403,-0.29583 1.90939,-0.41201 2.94377,-0.44263c0.09763,-1.12595 1.31278,-1.42974 1.31278,-1.42974c1.2425,-0.30268 2.36906,-0.97237 3.58959,-1.35413c0.56298,-0.17609 1.20411,-0.00062 1.75785,-0.20391c2.089,-0.76693 3.60527,-3.20706 6.24848,-2.57706c0.94769,0.22588 3.00854,2.41668 3.80399,3.21112l0.45886,0.45886c0,0 0.02237,0.02237 0.05801,0.06408c0.16553,0.05938 0.26726,0.11751 0.26726,0.11751c3.22732,1.85839 6.24132,3.76533 7.64036,7.31387l0.00322,0.01733c0.23107,-0.13161 0.52793,-0.21615 0.90934,-0.21615c1.72073,0 1.72073,1.72073 1.72073,1.72073l-0.00417,0.07693c0.82162,0.48694 1.56379,1.13585 2.42102,1.56146c0.49038,0.24347 1.04316,0.26124 1.60598,0.25023c-0.45083,-2.62824 -1.48486,-4.99677 -2.32678,-7.53391c-0.83117,-2.50472 -1.38947,-4.48542 -2.6396,-6.84974c-0.54862,-1.03758 -1.70937,-3.27948 -2.81226,-3.8108c-0.7605,-0.36638 -4.30232,0.86867 -4.92919,1.00678c-2.56984,0.56621 -3.9846,0.6071 -6.48803,-0.29707c0,0 -1.61117,-0.60419 -1.00698,-2.21536c0.05218,-0.13913 0.11186,-0.26175 0.17737,-0.36966c-0.14711,-0.07335 -0.30153,-0.13787 -0.46455,-0.19224c0.04127,0.41949 -0.05103,1.05004 -0.85978,1.37353zM317.22509,139.85662c0.51957,-0.5591 1.50485,-0.27501 2.26637,-0.32622c2.024,-0.13611 2.80958,0.83447 4.64209,1.04275c4.17765,0.47483 8.5125,-0.41441 12.70084,-0.00361c1.8133,0.17785 4.28282,-0.03874 6.0311,0.37427c0.96284,0.22746 1.90546,0.6771 2.89458,0.65616c1.47898,0.2465 2.7826,0.61508 4.2269,0.08082c1.05999,-0.39211 1.60829,-1.76845 2.70397,-2.04559c1.04532,-0.2644 2.35036,-0.33777 3.22091,0.29841c1.46186,1.06828 -0.00918,4.41702 -0.35258,5.52884c-0.74158,2.40104 -0.09405,5.07611 -0.65764,7.46178c-0.11795,0.49928 -0.5558,0.88097 -0.68829,1.37658c-0.53,1.98253 0.40476,4.44398 0.01199,6.48282c-0.23328,1.21095 -0.6811,2.40567 -0.66814,3.63882c-0.39468,2.36808 0.04987,4.98251 -0.76911,7.24697c-0.80375,2.22235 -2.1024,4.44866 -2.70448,6.72159c-0.23499,0.88712 0.21099,1.86003 0,2.75317c-0.11795,0.49928 -0.56145,0.87949 -0.68829,1.37658c-0.13092,0.51308 0.16405,1.11112 -0.06796,1.5871c-0.30771,0.63128 -1.08139,0.93056 -1.45048,1.52803c-0.26494,0.42888 -0.09858,1.05221 -0.39524,1.45979c-1.12561,1.54647 -2.0806,1.13473 -2.50327,2.74708c1.5968,0.39076 2.10442,0.45696 3.57311,2.23895c1.08939,1.32178 1.23449,3.69997 2.69466,4.75753c4.12219,2.98559 8.57621,4.81649 11.75286,8.9999c1.33396,1.75672 2.31485,2.25076 1.40825,4.88461c-0.30668,0.89096 -1.26827,1.40348 -1.78816,2.18933c-1.19429,1.8053 -1.7642,4.00074 -2.86306,5.88201c-1.01729,0.86589 -1.75302,2.0537 -2.8463,2.82141c-0.51795,0.36371 -1.25745,0.29891 -1.78389,0.65022c-1.02275,0.68252 -0.54987,2.59944 -1.51256,3.36434c-0.79584,0.63234 -1.96186,0.60352 -2.97663,0.66229c-3.01252,0.17449 -6.29458,-2.34944 -7.86213,-4.67614c-0.24123,-0.35805 -0.53701,-0.70921 -0.7644,-1.08386c-0.47872,0.56778 -1.0907,1.04522 -1.22578,1.18015l-0.0743,0.03263l0.01553,0.01864l-0.31135,0.25946c0.42686,1.11769 -0.69082,1.67653 -0.69082,1.67653l-0.07266,-0.27148c-0.11197,0.22393 -1.41308,2.83775 -1.49109,2.94244c-0.35853,0.48115 -0.97464,0.74282 -1.29542,1.24992c-0.61015,0.96454 -0.80791,2.14801 -1.39407,3.12732c-1.9553,3.26672 -4.31628,6.3408 -6.61791,9.40964c-0.506,0.67422 -1.9363,2.53623 -2.25138,3.17241c-0.22956,0.46351 -0.14289,1.05209 -0.40515,1.49792c-0.5184,0.88126 -1.5567,1.35604 -2.14603,2.19154c-0.60504,0.85777 -1.10137,1.78739 -1.66648,2.67198c-0.99116,1.55151 -0.71041,2.40288 -3.08566,2.70952c-1.51643,0.19577 -3.19516,-0.89301 -3.83102,-2.21815c-0.13632,-0.28408 -0.10479,-3.24662 -0.10479,-3.62411c0,-2.64113 0.33201,-5.39942 -1.41908,-7.39955c0,0 -0.85994,-1.07493 0.21499,-1.93487c0.14455,-0.11564 0.28521,-0.19629 0.42041,-0.24927c-0.46149,-0.68869 -0.92037,-1.35045 -1.41886,-1.70428l-0.47797,-0.21416c0,0 -1.23125,-0.61563 -0.61563,-1.84688c0.61563,-1.23125 1.84688,-0.61563 1.84688,-0.61563l0.89861,0.47413c0.53584,0.41722 1.16327,0.738 1.60751,1.25166c0.37765,0.43668 0.5757,1.00396 0.80241,1.53491c0.10223,0.23943 -0.07229,0.68793 0.17772,0.76054c0.2339,0.06793 0.24332,-0.44276 0.44468,-0.57979c0.29038,-0.1976 0.76129,-0.11368 0.97921,-0.38914c0.33959,-0.42925 0.26033,-1.08332 0.55207,-1.54643c0.86387,-1.37136 2.42653,-2.43115 3.41969,-3.75152c0.2953,-0.54209 0.45347,-1.18572 0.88589,-1.62626c0.38725,-0.39452 1.04693,-0.4135 1.46793,-0.77177c1.04267,-0.8873 2.00321,-2.35522 3.00596,-3.35797c0.6018,-0.6018 1.42824,-1.02509 1.84036,-1.76972c1.53144,-2.76703 2.42745,-5.8905 3.71171,-8.79634c0.56962,-1.28886 1.5586,-2.37926 2.0346,-3.70556c0.76105,-2.12053 1.2882,-3.63166 2.58745,-5.4052c-0.55841,-0.71841 -1.10825,-1.492 -1.65456,-2.14154c-0.31923,0.15195 -0.7346,0.2048 -1.26476,0.02808c-0.90213,-0.30071 -1.13953,-0.93378 -1.17139,-1.44003c-0.97804,-0.38701 -1.93362,-0.61021 -2.87477,-0.88772c-1.62118,3.04448 -3.76409,5.97508 -6.07754,8.28852c-0.28407,0.32873 -0.6109,0.73286 -0.97245,1.14887l0.14436,0.42468c-0.85168,1.97894 -1.95734,3.29175 -3.10334,5.04951c-0.9278,1.42307 -1.08993,3.25237 -1.69963,4.77972c-0.67332,1.6867 -1.3734,3.34012 -2.06473,5.0471c-0.64148,1.58389 -1.129,3.81995 -3.13906,4.43972c-0.53341,0.16447 -1.05359,0.18025 -1.55776,0.08141c-0.75117,2.651 -1.66524,5.20222 -2.34157,7.868c-0.58323,2.29883 -0.58332,4.82196 -0.88065,7.14039c-0.16044,1.25104 -0.76467,2.41892 -0.91772,3.67089c-0.42341,3.46351 -0.93225,7.34557 -0.90483,10.80242v0.67964c0.22817,0.44213 0.4461,0.89222 0.6519,1.35177c0.9617,0.624 0.75344,1.60077 0.61532,2.00023c0.28469,0.39482 0.75367,1.3137 -0.1652,2.23257c-0.73123,0.73123 -1.46246,0.58356 -1.92959,0.34928c-1.67089,0.82303 -2.80629,2.09401 -4.64083,2.79555c-4.2163,1.61233 -7.35849,1.32274 -11.68842,0.54594c-1.99465,-0.35784 -2.79014,-0.02679 -4.55972,-1.5926c-0.58653,-0.51899 -0.81948,-1.33488 -1.22922,-2.00232c0,0 -0.17147,-0.30008 -0.22624,-0.70812c-0.00713,-0.0038 -0.01428,-0.00766 -0.02145,-0.01157c-1.51062,-0.82397 -0.68665,-2.33459 -0.68665,-2.33459c0.74834,-1.36852 1.54686,-2.70819 2.37053,-4.03348l-0.69382,-1.14926c-0.81991,-3.30162 -1.15367,-6.55774 -0.96577,-9.93091c0.12949,-2.32458 -0.1627,-4.32461 0.53335,-6.59929c0.23912,-0.78146 0.51069,-1.54821 0.80562,-2.30421c-1.05133,0.85555 -2.11283,1.69529 -3.15605,2.57257c-1.67669,1.40998 -2.11637,3.87675 -4.28808,4.93216c-1.09399,0.53165 -2.48279,1.12984 -3.59349,0.63404c-0.69987,-0.31241 -0.57168,-3.48378 -0.57168,-4.21405c0,-3.26463 -0.50361,-6.86947 -2.25121,-9.69613c-0.01804,0.02139 -0.03548,0.04365 -0.05228,0.06681c-0.25211,0.34744 -0.09461,0.85331 -0.14191,1.27997c-1.6556,3.71567 -1.68339,7.19994 -2.21346,11.12157c-0.1879,1.39015 -1.03716,4.24515 -2.27248,4.97777c-1.50143,0.89043 -4.92438,-0.52557 -6.52851,-0.72701c-3.95196,-0.49627 -7.42748,-2.10734 -11.06755,-3.81772c-1.14087,-0.53607 -2.82736,-1.00569 -3.5198,-2.22586c-0.03647,-0.06426 -0.07144,-0.12917 -0.10506,-0.19469l-0.03395,0.02425l-1.13551,-1.58972c-0.20883,-0.2848 -0.33215,-0.63622 -0.33215,-1.01645c0,-0.95033 0.7704,-1.72073 1.72073,-1.72073c0.22668,0 0.44313,0.04383 0.64132,0.12348l1.72915,0.64843c1.8099,0.4485 3.58325,0.75841 5.41416,1.07682c0.46203,0.08035 0.97693,0.36459 1.39798,0.1581c-0.67018,-1.98882 -0.44996,-3.59243 -0.34741,-5.64872c0.17448,-3.49838 0.22053,-7.80008 2.37692,-10.77102c1.66827,-2.29845 2.9767,-2.0762 5.08586,-3.45222c2.99294,-1.95261 6.06744,-3.79546 9.07418,-5.76886c-0.00462,-0.01366 -0.00935,-0.02761 -0.01417,-0.04184c-0.13694,-0.15569 -0.25889,-0.35627 -0.35523,-0.61319c-0.11797,-0.31459 -0.15148,-0.59079 -0.12902,-0.83159c-0.45256,-1.38313 -0.96667,-3.08565 -0.87167,-3.51538c0.79132,-3.57951 2.77815,-2.83903 5.31533,-4.00628c3.96458,-1.82393 7.54904,-4.96709 11.79217,-6.0801c0,0 0.12514,-0.03129 0.31547,-0.04246c0.44663,-0.47447 1.09529,-0.90195 1.46525,-1.39425c1.97845,-1.97948 3.81552,-3.68828 6.11942,-5.17277c0.5172,-0.33326 1.39569,-0.86234 1.16417,-1.43239c-0.04156,-0.10232 -0.09276,-0.1988 -0.15169,-0.29061c-0.14277,0.02162 -0.23578,0.02162 -0.23578,0.02162l-0.46932,-0.13913c-1.78281,0.75791 -3.5912,1.01203 -5.39453,1.6514c-4.12238,1.46159 -7.75765,3.27435 -12.07339,4.21321c-4.64876,0.02361 -9.1901,0.18229 -13.63287,-1.47319c-2.4547,-0.91468 -4.66109,-2.18656 -7.29016,-2.67554c-1.85572,-0.34514 -3.66498,-0.44929 -5.50633,-0.91772c-0.91272,-0.23219 -2.13704,0.02244 -2.73622,-0.70416c-2.35262,-2.85294 0.73325,-5.72177 2.00686,-8.01759c0,0 0.29007,-0.52212 0.83602,-0.78024c-0.46702,-0.62203 -0.85201,-1.13754 -0.93784,-1.25198c0,0 -0.66212,-0.88283 -0.21889,-1.76474c-0.3207,-0.24948 -0.58412,-0.65932 -0.58412,-1.33257c0,-1.72073 1.72073,-1.72073 1.72073,-1.72073h0.68829c1.13178,0 2.2636,0.0061 3.39526,0.02222c1.75641,-0.60509 3.92195,-1.41064 6.09427,-1.80838c-0.06524,-0.77967 0.53582,-1.38073 0.53582,-1.38073l0.55286,-0.37881c1.41476,-3.2204 4.12085,-5.80828 5.08793,-9.21821l-1.14803,-0.76976c-0.53534,-0.30591 -1.07068,-0.61181 -1.60601,-0.91772c0,0 -0.93085,-0.53191 -0.90318,-1.49078c-0.49489,-0.16609 -1.11098,-0.57962 -1.11098,-1.60925c0,-1.72073 1.72073,-1.72073 1.72073,-1.72073c2.56369,0.00493 5.19428,-0.30856 7.73501,-0.66281c0.84271,-0.1175 1.70163,-0.6934 2.5142,-0.44102c3.62686,1.12649 3.16846,5.62142 3.17247,8.56032v1.14715c0,0 0,1.72073 -1.72073,1.72073c-0.05263,0 -0.10365,-0.00161 -0.15311,-0.00473c-0.69616,0.73244 -1.76761,0.37529 -1.76761,0.37529l-0.56149,-0.1925c-1.40666,-0.37213 -2.44442,-0.86301 -3.44886,-1.52859c-1.28911,2.86128 -3.43378,5.18026 -4.64714,8.10827l-0.25299,0.28732c0.87836,0.15366 1.71037,0.45627 2.46306,0.95766c0.80452,0.53592 1.8282,1.04567 2.29535,1.86478c0.37413,0.04289 0.6477,0.17968 0.6477,0.17968c1.96491,1.05459 3.20032,1.19195 3.68822,3.82766c0.12281,0.66343 -1.5932,3.74264 -0.38205,4.2532c0.33133,0.13967 0.71912,0.00066 1.07869,0.0003c1.57779,-0.00157 5.06066,0.57915 6.41655,-0.5653c1.16415,-0.9826 1.93558,-2.47555 3.29081,-3.17133c1.14337,-0.58701 2.56332,-0.42501 3.73749,-0.94771c1.0758,-0.4789 2.12462,-1.04976 3.22979,-1.44991c-0.83563,-1.45148 -1.09641,-3.27137 -0.49983,-4.90517c0.70265,-1.92427 3.01117,-3.74983 3.9713,-5.67122c0.84183,-1.68465 1.36705,-3.66937 2.03045,-5.43225c1.83821,-3.63953 1.75236,-8.00894 4.35813,-11.3932c1.25907,-1.63522 3.15637,-2.36442 4.80895,-3.38138c2.54423,-1.56566 5.78227,-3.83695 9.05812,-4.69784c-0.05716,-1.69631 -0.01577,-3.71686 0.87409,-4.67442zM342.7279,187.72084c0.54696,-0.94127 1.83826,-1.25452 2.46011,-2.14809c0.25251,-0.36284 0.05646,-0.91996 0.29305,-1.29337c0.31904,-0.50353 1.0292,-0.69549 1.30269,-1.22514c0.17864,-0.34595 -0.16024,-0.78781 -0.06796,-1.16606c0.1216,-0.4984 0.5558,-0.88097 0.68829,-1.37658c0.23702,-0.88659 -0.21376,-1.86068 0,-2.75317c0.56665,-2.3659 1.9132,-4.7756 2.80185,-7.04424c0.74818,-1.91004 0.26821,-4.48329 0.60748,-6.51885c0.01213,-1.33184 0.43651,-2.62854 0.70844,-3.93238c0.43647,-2.09282 -0.48397,-4.49534 0.01199,-6.59472c0.11795,-0.49928 0.5558,-0.88097 0.68829,-1.37658c0.29352,-1.09796 0.17117,-2.81413 0.31763,-3.98167c0.22286,-1.77655 0.61012,-3.28345 1.05895,-4.96612c0.09151,-0.34308 0.01898,-0.80653 0.12198,-1.13742c-0.34848,0.40722 -0.645,0.87433 -1.07463,1.19386c-0.51082,0.3799 -1.10844,0.63744 -1.70388,0.86263c-1.8629,0.7045 -3.50966,0.3974 -5.40918,0.08082c-1.12576,-0.01881 -2.21232,-0.42964 -3.30004,-0.72043c-1.15381,-0.30845 -2.75142,0.1601 -3.94912,0.03013c-4.28662,-0.46519 -8.60911,-0.32215 -12.94189,-0.33745c-1.48021,-0.00523 -1.76896,0.1039 -3.23077,-0.42965c-0.84174,-0.30723 -1.73397,-0.46725 -2.61971,-0.60278c-0.19308,-0.02955 -0.40887,-0.50534 -0.48679,-0.32622c-0.1577,0.36249 -0.09271,1.32815 -0.01032,2.2264c1.15036,0.01869 2.2833,0.28572 3.3697,0.89506c1.20763,0.67734 1.92839,1.63309 2.76178,2.64608c1.27354,-0.05747 2.51696,-0.44012 4.02572,-0.77254c1.48729,-0.32769 3.14421,-1.00866 4.70689,-0.3698c1.87325,0.76583 3.61882,3.67198 4.52952,5.36642c1.3408,2.49469 1.98067,4.72957 2.86673,7.37494c1.03074,3.07733 2.20331,5.9011 2.61045,9.16077c0.00004,0.11717 0.00094,0.23407 0.00261,0.35068c1.23098,0.70597 2.2474,1.73325 2.69623,3.2149c0.2738,0.90384 -0.17339,1.88083 -0.26009,2.82124l-1.05614,1.91559c0,0 -0.44479,0.77839 -1.25412,0.89042c-0.31592,1.6711 -1.04371,3.27719 -2.55611,4.82322c-0.77557,0.79282 -1.32987,2.31623 -2.43775,2.26452c-1.25941,-0.05878 -2.16616,-1.43797 -2.82918,-2.51034c-0.38789,-0.62737 0.00774,-1.47987 -0.08988,-2.21098c-0.16243,-1.21641 -0.48313,-2.4109 -0.84766,-3.58272c-0.16283,-0.52344 -0.35111,-1.03181 -0.55981,-1.52817c-0.01086,0.59923 -0.05472,1.20594 -0.35374,1.91494c-0.27979,0.6634 -0.91811,1.11125 -1.33182,1.70052c-0.48739,0.69421 -0.97656,1.35629 -1.48429,1.97654c0.2257,0.2748 0.32511,0.5399 0.32511,0.5399c0.34683,0.93349 0.38397,2.1134 1.14013,2.76142c1.14893,0.98461 3.46045,1.34642 4.76725,2.09106c0.53032,0.30219 0.89827,0.83581 1.41065,1.16749c0.9297,0.60182 2.23624,0.75713 3.44182,0.93087c0.03886,-0.10154 0.08452,-0.20022 0.13955,-0.29493zM317.69313,239.56527c0.22891,0.52574 0.01008,1.14874 0.07291,1.7187c0.20276,1.83947 0.34884,3.42133 0.34884,5.27573c0,0.64444 -0.63378,3.27018 0.88223,3.10553c0.65474,-0.07111 1.81196,-2.37434 2.07653,-2.79681c0.74025,-1.18205 2.09884,-2.25018 2.72625,-3.39598c0.90419,-1.65125 1.65124,-3.36666 2.8498,-4.96575c1.90781,-2.54375 3.64076,-5.0944 5.52257,-7.59242c1.08206,-1.43638 1.4155,-3.22599 2.29615,-4.64911c0.83456,-1.34866 1.69724,-2.22754 2.45717,-3.57339c-0.24905,-0.29848 -0.39891,-0.68261 -0.39891,-1.10174v-1.83544l0.20083,0c-0.30223,-2.1773 -0.02746,-4.17987 1.45639,-6.44817c1.19657,-1.82914 2.89582,-2.16985 4.20236,-3.77352c0.36776,-0.4514 1.17807,-1.13775 0.78017,-1.56283c-0.69636,-0.74393 -1.95268,-0.63869 -2.86583,-1.08917c-0.98777,1.42181 -1.30061,2.5538 -1.95564,4.33442c-0.50601,1.37552 -1.49658,2.52781 -2.09515,3.86565c-0.48913,1.09323 -0.5838,2.331 -1.03244,3.44146c-0.61215,1.51518 -1.82753,2.56663 -2.38974,4.08055c-0.18993,0.51145 -0.16244,1.10595 -0.43732,1.57722c-0.97028,1.66354 -3.02845,2.8978 -4.28771,4.35345c-0.42302,0.48899 -0.70084,1.1091 -1.19034,1.53152c-0.62597,0.54019 -1.44583,0.97364 -1.77592,1.73171c-0.98839,1.32083 -2.62141,2.46173 -3.46322,3.81969c-0.36296,0.5855 -0.36327,1.38337 -0.82452,1.89503c-0.45313,0.50266 -1.15384,0.71642 -1.77396,0.98745c-0.49923,0.21819 -1.0136,0.60119 -1.53393,0.76376c0.05593,0.09784 0.10711,0.19845 0.15241,0.3025zM277.14377,239.11214c0.02416,0.12483 0.01778,3.26873 0.01778,3.31782c0,0.26447 0.03382,0.53373 0.05468,0.80116c0.48742,-0.42414 1.14512,-0.79067 1.54612,-1.24735c0.22841,-0.26013 2.16513,-2.87176 2.3352,-3.0197c0.41119,-0.35767 1.01479,-0.42514 1.45372,-0.74816c0.95642,-0.70386 1.4325,-1.91787 2.33188,-2.6933c0.68581,-0.5913 1.46701,-1.07131 2.1866,-1.62088c-3.63285,0.08379 -7.30871,0.13972 -10.8228,-0.43829l-0.11784,0.01873c0,0 -0.28601,0 -0.59729,-0.13037c0.76564,1.82892 1.23199,3.79703 1.61195,5.76034zM292.99224,232.44973c0,1.17123 -0.99651,1.34595 -1.29382,1.37201c-1.62933,3.08746 -3.22371,6.24783 -3.59447,9.54499c-0.42213,3.75407 -0.24044,7.78704 0.51783,11.54253c1.23347,-1.90549 2.47215,-3.80831 3.63923,-5.75288c0.7253,-1.20848 1.98606,-3.85567 3.32682,-4.22079c2.55928,-0.69697 3.78336,1.79632 4.69834,3.34439c1.32258,2.23769 2.85756,4.30294 4.32882,6.41449c0.17793,-2.26024 0.4475,-4.54456 0.72203,-6.70075c0.15931,-1.25119 0.76576,-2.41879 0.91772,-3.67089c0.29792,-2.4548 0.35407,-5.10787 0.95479,-7.54316c0.74932,-3.03772 1.84593,-5.92494 2.64226,-8.97307c-1.34136,-1.39104 -2.45888,-3.19134 -3.26285,-4.30028c-0.80733,-0.14677 -1.61971,-0.64557 -2.41864,-0.4584c-0.47945,0.11232 -0.79216,0.59898 -1.24113,0.80127c-1.83395,0.82631 -3.08476,1.05267 -4.58947,2.45293c-1.09053,1.01483 -2.68562,2.97214 -4.16015,3.37505c-0.12848,0.03511 -0.26176,0.06139 -0.39887,0.07946c-0.30471,0.64812 -0.63183,1.29827 -0.96978,1.95108c0.11009,0.18689 0.18135,0.42884 0.18135,0.74204zM290.40975,229.00199c-0.63759,-0.33327 -1.19737,-0.74356 -1.58324,-1.172c-1.0749,-1.19345 -1.38802,-2.1945 -1.26074,-3.12311c-0.48182,0.17754 -0.97077,0.36703 -1.48318,0.55918c0,0 -0.72656,0.27246 -1.38683,-0.03646c0.12699,0.82613 -0.52435,1.47747 -0.52435,1.47747l-0.80345,0.79345c-0.24797,0.20664 -2.84132,2.37682 -2.98969,2.45988c-0.82078,0.45947 -1.66698,0.72274 -2.51776,0.95848c3.77227,0.47845 7.73595,0.26196 11.57613,0.18042c0.3336,-0.6957 0.66061,-1.39366 0.97311,-2.09732zM322.80597,159.0251c-0.74257,-0.74357 -1.17179,-1.94113 -2.1612,-2.29521c-0.77312,-0.27668 -1.45769,0.75843 -2.16309,1.17877c-0.65787,0.39201 -1.34467,0.74043 -2.05137,1.05398c2.17961,-0.11706 4.44994,-0.24309 6.43133,0.11813zM307.11445,174.25776c0.31174,0.31174 0.46373,0.62347 0.51738,0.91475c0.75872,-0.86227 1.9263,-0.36188 1.9263,-0.36188c1.91622,0.82129 4.40333,2.55924 6.45732,2.86205c1.12612,0.16602 1.87643,-0.51422 2.86931,-0.84627c1.88744,-0.63121 3.45307,-1.15538 5.20195,-2.15763l1.08315,-0.22672c0,0 1.72073,0 1.72073,1.72073c0,1.28727 -0.96301,1.61154 -1.44817,1.69322c-2.73302,1.53759 -6.80401,3.57445 -9.93144,3.22094c-2.32049,-0.26229 -5.17214,-2.18761 -7.3085,-3.10314c0,0 -0.13861,-0.0594 -0.31617,-0.18407c1.07022,1.22377 2.14064,4.1598 3.49554,4.93378c0.55054,0.31449 2.51599,0.2089 3.00479,0.20746c3.15835,-0.00932 6.19334,0.41416 9.06036,-1.04798c3.29547,-0.6946 4.84863,-2.74321 6.75316,-5.35276c0.28029,-0.38404 0.77105,-0.61744 0.96249,-1.05264c0.46111,-1.04825 0.06695,-2.31141 0.37109,-3.41547c0.18326,-0.66527 0.40873,-1.20836 0.62505,-1.70295c-0.72361,-1.1318 -1.47237,-2.25095 -2.16646,-3.40605c-0.80179,1.14386 -1.75115,1.91715 -2.91743,3.08461c-3.0122,3.01525 -5.0212,4.38408 -9.43471,3.20578c-0.78176,-0.20871 -1.65909,-0.22279 -2.33289,-0.67079c-0.9889,-0.65751 -2.15122,-2.47009 -2.55291,-4.17481c-1.49296,1.20984 -2.95636,2.55285 -4.67442,3.19161c-1.03775,0.38582 -2.14879,0.57473 -3.22312,0.54401c0.04032,0.48147 0.10595,0.95269 0.20681,1.40953c0.02909,0.13175 0.06046,0.25799 0.09406,0.37926c0.46563,-0.24201 1.21118,-0.41013 1.95673,0.33542zM307.11445,176.69124l-0.14139,0.13729c0.11316,0.11766 0.22962,0.23741 0.34911,0.36123c-0.08719,-0.15227 -0.15339,-0.32801 -0.17981,-0.52832c-0.01767,0.01955 -0.02792,0.0298 -0.02792,0.0298zM299.18108,170.95949c-0.27819,0.55611 -2.38228,3.77407 -2.695,4.17748c-0.33192,0.42817 -0.90206,0.67452 -1.13433,1.16396c-0.14756,0.31093 0.04167,0.68804 0.09399,1.0282c0.54235,3.52611 3.28711,1.22479 5.09895,-0.0473c0.58663,-0.41188 1.18239,-0.81255 1.77245,-1.22073c-0.26187,-0.56022 -0.47811,-1.17406 -0.63284,-1.86721c-0.22188,-0.99395 -0.2833,-2.04193 -0.27896,-3.11155c-0.61819,-0.42633 -1.14597,-0.98701 -1.539,-1.69119c-0.20905,0.53903 -0.43386,1.06581 -0.68525,1.56834zM301.42565,181.36012c1.66936,0.32885 3.59082,0.66706 5.41746,0.81104c-0.11048,-0.16875 -0.20688,-0.31402 -0.28522,-0.42591c-0.70951,-1.01335 -1.47919,-1.8571 -2.20162,-2.70504c-0.99228,0.80176 -2.06635,1.60935 -3.16408,2.26374c0.07534,0.02146 0.15305,0.04033 0.23346,0.05617zM338.50859,175.40552c0.39581,1.26167 0.75604,2.5467 0.94122,3.85582c0.52301,-0.6499 1.13616,-1.2894 1.28045,-1.76175c0.57126,-1.8701 0.20387,-4.06197 -0.07357,-6.14736c-1.23357,-0.18297 -2.61559,-0.17761 -3.33484,-0.49873c-0.48795,-0.21785 -0.93805,-0.51113 -1.38102,-0.81781c1.02487,1.68198 1.95625,3.42062 2.56776,5.36983zM287.89013,263.86922c0.90808,1.81206 1.47015,1.57901 3.38828,1.9114c3.7157,0.6439 7.73003,1.44772 11.17882,-0.90786c0.99344,-0.67854 1.92798,-1.47195 2.9722,-2.06235c-0.00509,-0.02062 -0.01017,-0.04124 -0.01526,-0.06187c-0.10602,-0.24617 -0.21541,-0.49141 -0.32803,-0.73563c-0.60202,-0.43692 -0.67085,-1.21355 -0.67872,-1.38543c-1.33412,-2.57186 -3.01063,-5.00444 -4.86572,-7.17637c-0.89939,-1.05299 -1.6109,-2.26299 -2.25715,-3.48775c-0.24425,-0.46289 -0.54173,-0.89772 -0.76607,-1.37058c-0.04788,-0.10093 0.01122,-0.43076 -0.04192,-0.3325c-2.77833,5.13746 -6.17633,9.97682 -9.03598,15.09149c0.29418,0.24553 0.44955,0.51744 0.44955,0.51744zM293.65379,225.48518c0.17663,0.06624 0.32664,0.14458 0.45373,0.23157c1.15673,-0.71642 2.12538,-2.3236 3.46698,-3.24583c1.18825,-0.81682 2.62379,-1.19747 3.94997,-1.76348c0.68237,-0.29123 1.24089,-0.90177 1.9709,-1.03417c1.38683,-0.25154 3.65475,0.55714 4.92313,0.91818c1.31389,1.46449 2.63067,2.93846 3.84857,4.48559c0.35586,0.45206 0.66513,1.62518 1.13807,1.29758c1.24112,-0.85971 1.622,-4.59243 2.13799,-5.88502c0.86449,-2.16561 1.62163,-4.92655 2.88897,-6.92123c0.4087,-0.64325 0.80604,-1.19119 1.18548,-1.72673c-1.43307,-0.9969 -3.27917,-3.35614 -4.09701,-4.12342c-2.00653,-1.88246 -5.35059,-2.82322 -7.96964,-3.50017c-2.83488,-0.73274 -6.25102,-0.1114 -9.11752,0.04664c-1.97194,0.10871 -3.66415,-0.43442 -5.61325,-0.45554c-1.12774,-0.01221 -2.76543,0.14322 -3.95453,-0.46648c-0.24512,0.13541 -0.44617,0.18568 -0.44617,0.18568c-3.96622,0.92525 -7.43323,4.18244 -11.15088,5.85028c-1.13105,0.50742 -3.38184,0.26057 -3.40302,1.50005c-0.00558,0.32637 0.05439,0.64093 0.1531,0.94871c0.97164,-0.35243 2.05401,-0.69151 2.74137,-0.67646c3.03462,0.06646 3.86647,1.85974 5.62848,3.77095c1.64515,1.78446 3.31415,3.37151 4.63708,5.3912c0.27091,0.13515 0.54202,0.35551 0.70587,0.7148c0.78317,-0.2445 1.57617,-0.44935 2.4259,-0.59404c1.75064,-2.40722 3.51908,-5.57451 4.20548,-8.43839c0,0 0.41734,-1.66935 2.08669,-1.25201c1.66935,0.41734 1.25201,2.08669 1.25201,2.08669c-0.81967,3.17604 -2.59568,6.55599 -4.52416,9.29485c-0.14192,0.82235 -0.96427,1.23353 -0.96427,1.23353l-0.21952,0.08604c-0.67652,0.66382 -1.37872,1.49279 -0.6861,2.00043c0.20361,0.14923 0.39877,0.26937 0.5865,0.36326c0.34934,-0.34878 0.9167,-0.63923 1.75978,-0.32307zM277.0719,215.87789c-4.05272,2.89444 -8.31911,5.44926 -12.4801,8.0907c-1.70764,1.08403 -2.88663,0.78147 -4.09136,2.51297c-1.0219,1.46873 -1.02795,2.85372 -1.31405,4.56131c-0.63472,3.78825 -0.50099,7.31472 -0.32733,11.13922c-0.83103,0.72225 -1.46963,1.76081 -2.49308,2.16676c-0.21603,0.08569 -0.44088,0.11717 -0.67087,0.11614c1.82784,0.73725 3.68525,1.32486 5.6739,1.57227c1.23649,0.15384 2.46497,0.38762 3.67407,0.68869c0.29511,0.07348 0.54194,0.56326 0.81007,0.41975c0.27114,-0.14513 0.05454,-0.61395 0.11582,-0.91532c0.21258,-1.04547 0.2887,-2.11603 0.3553,-3.18081c0.21604,-3.4537 0.98769,-6.93819 2.38472,-10.08935c0.2586,-0.79697 0.23064,-1.75466 0.77581,-2.39092c0.72477,-0.84586 4.6697,-2.42783 5.81336,-2.81106c1.0866,-0.36411 2.36272,-0.19086 3.34997,-0.77277c0.94655,-0.55792 1.67257,-1.42534 2.51664,-2.12873l0.57314,-0.58313c0,0 0.96691,-0.96691 2.03878,-0.31489c-0.16949,-0.75371 0.16962,-1.25387 0.51446,-1.55342c-1.15591,-1.96811 -2.90213,-3.4946 -4.44124,-5.15979c-0.65869,-0.71265 -1.15529,-1.90367 -2.06005,-2.41269c-0.15977,0.64638 -0.71797,1.04509 -0.71797,1.04509zM321.15483,207.36533c0.40892,-0.30669 0.78747,-0.4008 1.11761,-0.38158c0.16369,-0.18516 0.32788,-0.36992 0.48774,-0.55814c2.05084,-2.05084 4.02508,-4.66639 5.49499,-7.38488c-0.09558,-0.0697 -0.19109,-0.14263 -0.28656,-0.21901c0,0 -1.3219,-1.10158 -0.22032,-2.42348c0.6894,-0.82728 1.46508,-0.70538 1.94905,-0.49834c0.01889,-0.0505 0.03756,-0.10097 0.05599,-0.15142l3.66769,1.11228c0,0 0.1534,0.38351 0.12199,0.84989c0.56347,0.14301 1.13682,0.27612 1.7053,0.4451c1.20999,-2.73499 2.46009,-5.11459 4.35936,-7.25887c-0.77513,-0.18903 -1.53283,-0.44814 -2.25939,-0.87771c-0.50292,-0.29734 -0.83564,-0.83626 -1.34251,-1.12681c-1.5309,-0.87753 -4.01517,-1.26859 -5.32769,-2.49755c-0.81068,-0.75907 -1.3442,-2.13092 -1.76893,-3.29469c-1.21318,0.9287 -2.60551,1.62979 -4.31071,2.02601c-3.25791,1.5997 -6.65959,1.25578 -10.2118,1.24632c-1.60404,-0.00427 -3.30903,0.13948 -4.79585,-0.71026c-0.06461,-0.03693 -0.13185,-0.08322 -0.20124,-0.13768c-0.38601,0.15965 -0.73867,0.15965 -0.73867,0.15965c-2.53021,-0.01285 -5.45081,-0.4535 -7.91718,-0.95286c-0.63905,-0.12939 -1.23902,-0.42723 -1.80937,-0.74319c-0.22058,-0.1222 -0.28878,-0.64519 -0.52148,-0.54804c-0.22153,0.09249 0.19177,0.47044 0.14389,0.70568c-0.22957,1.128 -1.36508,3.03058 -0.89658,4.27937c0.44236,1.1791 2.14589,1.71317 2.35375,2.95524c0.59508,3.55587 -2.19424,4.27244 -4.27994,5.86235c-1.02131,0.77854 -2.04136,1.92063 -3.01169,2.97231c1.34975,0.01829 2.77491,0.46179 3.98903,0.62444c3.05342,0.40906 6.41216,-0.4412 9.53276,-0.239c3.24548,0.21029 7.13475,1.58003 9.93536,3.21253c1.4687,0.85611 3.42802,2.75286 4.455,4.13531c0.11174,-0.19879 0.28178,-0.39649 0.53041,-0.58297zM338.54642,199.72454c1.1284,1.13038 2.29622,3.29851 3.50188,4.21094c1.26474,0.95714 3.3628,0.97707 4.12818,2.36627c2.47757,4.4969 -3.47024,6.26082 -5.11241,8.88834c-0.44688,0.71502 -0.83431,1.5607 -1.02054,2.41264c1.15985,-1.08399 2.53482,-2.13386 3.62792,-1.98236c1.04398,0.14469 0.79829,1.95232 1.25585,2.90179c0.19632,0.40737 1.4792,2.42993 1.72515,2.63269c1.01227,0.83453 2.72344,1.48846 3.9842,1.69705c0.23791,0.03936 0.5577,0.40219 0.69426,0.20343c0.23964,-0.34879 -0.14621,-0.88792 0.03785,-1.26899c0.40545,-0.83945 0.94732,-1.65055 1.66162,-2.24958c0.51643,-0.43309 1.32997,-0.34691 1.887,-0.72636c0.86243,-0.5875 1.39134,-1.56795 2.20117,-2.22606c0.99892,-1.81276 1.47797,-3.85542 2.64327,-5.58951c0.38204,-0.56851 1.04405,-0.91156 1.42387,-1.48155c0.39194,-0.58817 -2.04385,-3.13007 -2.16046,-3.25707c-2.72186,-2.96415 -6.85777,-4.27123 -9.91578,-6.71918c-2.6685,-2.13614 -2.15382,-5.77503 -5.77304,-6.56246c0,0 -0.33432,-0.08358 -0.66634,-0.32555c-1.96964,2.0194 -3.12648,4.27664 -4.28377,6.91541zM252.99185,187.6124c-0.35029,0.54918 -0.76951,1.0515 -1.17105,1.56441c-0.06566,0.08387 -0.335,0.22667 -0.22853,0.22336c5.04695,-0.15681 9.59977,1.73024 14.29324,3.50321c3.92961,1.48442 7.95174,1.25434 12.06334,1.27997c4.02722,-0.91749 7.45678,-2.68531 11.32852,-4.04628c1.65975,-0.58343 3.30105,-0.80358 4.92961,-1.4644c-0.21595,-1.75267 0.33469,-4.02831 1.00648,-5.51511l-1.26534,-0.01004c-1.14444,0.27905 -2.12638,1.01577 -3.20821,1.48187c-1.13635,0.48958 -2.48835,0.35324 -3.60428,0.88774c-1.1627,0.55689 -1.63147,2.03602 -2.67438,2.79386c-1.85924,1.35102 -4.3975,1.27347 -6.55406,1.27347c-0.98764,0 -3.95786,0.11712 -4.764,-0.46188c-1.00345,-0.72072 -1.83479,-1.80274 -2.19958,-2.98311c-0.38208,-1.23633 0.87941,-2.48249 0.89982,-3.77635c0.01127,-0.71466 -1.69888,-1.16712 -1.81811,-1.21981c0,0 -0.0056,-0.0028 -0.01596,-0.0084c-0.91447,2.16395 -2.31063,3.5063 -4.53815,4.42518c-3.37701,1.39305 -8.22064,2.91258 -11.41641,0.15219c-0.00088,-0.00076 -0.00182,-0.00161 -0.00283,-0.00255c-0.34637,0.6384 -0.66968,1.29055 -1.06011,1.90267zM275.05118,161.45155c-0.04028,-0.50937 0.2259,-1.57236 -0.28085,-1.50692c-1.78577,0.23058 -3.55825,0.58301 -5.35458,0.84464l0.95701,0.63483c0,0 0.5285,0.35233 0.72924,0.94996c0.06827,0.04603 0.10615,0.07759 0.10615,0.07759c1.42455,1.18879 2.26577,1.96067 4.05855,2.3881c-0.01636,-1.13113 -0.12632,-2.26021 -0.21551,-3.38821zM254.27126,180.40331c0.75134,1.20019 1.84486,3.0752 2.96999,3.27361c1.99432,0.35169 3.40252,-0.1606 5.11142,-0.8513c1.3365,-0.54018 3.12581,-0.62065 4.07989,-1.95534c0.28002,-0.39174 0.24664,-0.95376 0.52767,-1.34477c0.17677,-0.24594 0.74948,-0.1691 0.77719,-0.4707c0.02239,-0.24372 -0.49654,0.06153 -0.73424,0.00321c-2.56477,-0.62928 -3.49966,-0.46378 -6.13736,0.15605c-1.43032,0.33611 -2.85171,0.71811 -4.24946,1.17096c-0.78168,0.00823 -1.56338,0.01452 -2.3451,0.01828zM322.33911,162.48407c-2.72695,-0.49807 -6.08723,0.02761 -8.8702,0.02761c-1.65059,0 -3.8742,-0.35051 -5.68425,-0.10987c-0.20242,0.72509 -0.86786,1.25703 -1.65753,1.25703c-0.33055,0 -0.63933,-0.0932 -0.90149,-0.25476c-0.15067,0.09829 -0.30014,0.19926 -0.44959,0.30031c0.05962,0.18421 0.07592,0.3146 0.07592,0.3146c0.1776,1.44067 0.08826,2.99428 0.01446,4.54368c0.23735,-0.03606 0.47228,-0.07142 0.69492,-0.08246c0.45698,-0.02265 0.93847,0.02924 1.36613,-0.1334c2.0552,-0.7816 3.66688,-2.91778 5.59851,-4.01885l0.98918,-1.18702c0.31558,-0.38418 0.79433,-0.62924 1.33031,-0.62924c0.95033,0 1.72073,0.7704 1.72073,1.72073c0,0.08157 -0.00568,0.16181 -0.01665,0.24036l-0.21426,1.71404c0.13575,0.90719 -0.34739,2.88903 0.80155,3.47109c0.40458,0.20496 0.89553,0.14739 1.338,0.24693c3.32654,0.74834 3.86476,-0.00098 6.16656,-2.30055c1.11439,-1.11331 1.99195,-1.60802 2.67291,-2.76312c-1.5737,-1.04361 -3.20612,-2.03397 -4.97522,-2.35709z" fill="#ffffff" stroke="none" stroke-width="0.5"/><path d="M356.30219,197.50429c-0.04819,0.3613 -0.27703,1.21916 -1.36373,1.21916c-1.37658,0 -1.37658,-1.37658 -1.37658,-1.37658l0.40319,-1.31754c1.36286,-1.08772 0.99141,-4.42824 1.34427,-6.17949c0.30509,-1.51415 1.19271,-2.87412 1.36016,-4.37212c0.29702,-2.657 0.78168,-5.33477 1.79441,-7.8765c1.4344,-4.17791 1.43609,-8.03661 0.95514,-12.4684c-0.28825,-2.65619 -0.09902,-5.34197 -0.96463,-7.94839c-0.79569,-2.39589 -2.15245,-4.51462 -2.78657,-6.99579c0,0 -0.33387,-1.33548 1.00161,-1.66935c1.33548,-0.33387 1.66935,1.00161 1.66935,1.00161c0.58587,2.40973 1.94302,4.44666 2.71976,6.77003c0.93911,2.80905 0.77408,5.70792 1.10025,8.5706c0.55453,4.86695 0.38784,9.08612 -1.10973,13.68667c-0.95099,2.36769 -1.31164,4.8047 -1.64705,7.26591c-0.29259,2.14699 -1.47494,3.94855 -1.71711,6.16207c-0.24563,2.24513 -0.08498,3.80967 -1.38274,5.52811z" fill="#ffffff" stroke="none" stroke-width="0.5"/><path d="M240.79513,122.14935c-0.97339,0.97339 -1.94678,0 -1.94678,0l-0.94615,-1.04606c-0.3941,-0.79181 -1.17058,-2.46579 -1.74465,-3.02509c-0.38707,-0.37712 -1.0617,-0.35994 -1.43895,-0.74689c-0.29271,-0.30024 -0.08704,-0.95048 -0.43861,-1.17898c-0.37964,-0.24674 -0.9907,0.27547 -1.35829,0.01111c-1.47514,-1.06089 -2.45163,-3.7854 -3.70943,-5.02675c-0.36514,-0.36037 -1.02154,-0.31797 -1.37658,-0.68829c-0.45576,-0.47536 -0.68045,-1.13178 -0.94615,-1.73435c-0.11309,-0.25646 0.06341,-0.68356 -0.18075,-0.82122c-0.47568,-0.26819 -1.23718,0.18556 -1.62626,-0.1976c-0.36854,-0.36292 0.20604,-1.16368 -0.14335,-1.54507c-0.33583,-0.36658 -1.00811,-0.0504 -1.47493,-0.2214c-0.64886,-0.23768 -1.32407,-0.50879 -1.82318,-0.9867c-0.30286,-0.28999 -0.08973,-0.94639 -0.43861,-1.17898c-0.45436,-0.30291 -1.2339,0.1822 -1.62626,-0.1976c-0.3297,-0.31914 0,-0.91772 0,-1.37658c-0.35091,0.0801 -0.76418,0.45546 -1.05274,0.24031c-0.74299,-0.55398 -0.98469,-1.58928 -1.63806,-2.24658c-1.22123,-1.22858 -3.43406,-1.38773 -4.91158,-1.75711c-0.4977,-0.12443 -0.88097,-0.5558 -1.37658,-0.68829c-1.79785,-0.48063 -4.6779,0.03682 -6.56664,0.03682c-4.12975,0 -8.2595,0 -12.38924,0c0,0 -0.52344,0 -0.92477,-0.32277c-1.24429,1.46705 -3.12187,2.62771 -4.39668,4.03312c0.04959,1.78048 -0.0535,3.75503 -0.28966,4.38766c-0.29891,0.8007 -1.37639,1.37812 -1.2718,2.22637v1.37658c0,0 0,1.37658 -1.37658,1.37658c-0.52484,0 -0.84958,-0.20011 -1.05051,-0.44773c-0.1329,0.38333 -0.30113,0.77329 -0.53062,1.16976c-0.31164,0.53838 -1.0667,0.74283 -1.33491,1.30411c-0.93163,1.94953 -0.44492,4.736 -1.30127,6.71652c-0.31696,0.73303 -1.04442,1.24199 -1.34807,1.98063c-0.52988,1.28896 -0.30543,3.34379 -0.66605,4.7354c-0.25739,0.99324 -1.12398,1.7587 -1.37658,2.75317c-0.4758,1.87313 0.03682,4.61617 0.03682,6.56664c0,0.45886 0,0.91772 0,1.37658v0.68829c0,0 0,1.37658 -1.37658,1.37658c-1.37658,0 -1.37658,-1.37658 -1.37658,-1.37658c0,-0.45886 0,-1.60601 0,-2.06487c0,-2.18924 -0.48765,-5.07972 0.03682,-7.19919c0.24646,-0.996 1.13921,-1.75496 1.37658,-2.75317c0.34635,-1.45648 0.17045,-3.51756 0.71053,-4.90068c0.31132,-0.79727 1.05452,-1.36831 1.40509,-2.14912c0.91818,-2.04501 0.48604,-4.96736 1.45189,-7.04931c0.28443,-0.61311 1.06757,-0.87128 1.41825,-1.44906c0.40622,-0.66929 0.56058,-1.44543 0.69095,-2.23319c-0.42437,0.81012 -0.61874,1.78468 -1.29594,2.38557c-1.06794,0.94759 -3.77093,0.56964 -5.1059,0.56964c-0.45886,0 -0.92906,0.10138 -1.37658,0c-0.18537,-0.04199 -0.33046,-0.57879 -0.40319,-0.40319c-0.1756,0.42393 0.36579,1.09955 0,1.37658c-1.41379,1.07075 -3.30504,-0.02978 -4.78686,0.36637c-0.49562,0.1325 -0.87352,0.58768 -1.37658,0.68829c-0.67493,0.13499 -1.39964,-0.17665 -2.06487,0c-0.50494,0.13409 -3.49139,1.95595 -4.12975,2.06487c-0.47798,0.08156 -1.01381,-0.64906 -1.40776,-0.36637c-0.3728,0.26753 0.34841,1.07798 0,1.37658c-0.52301,0.44824 -1.37469,0.16594 -2.0337,0.36637c-1.35018,0.41064 -2.44283,1.45679 -3.78116,1.90453c-0.46199,0.15456 -1.04095,-0.18037 -1.45987,0.06828c-0.73878,0.43851 -1.06732,1.38747 -1.78594,1.85831c-1.43871,0.94264 -3.39574,0.74468 -4.93107,1.52005c-0.60101,0.30352 -0.85575,1.09766 -1.45879,1.39713c-0.78357,0.38913 -1.70394,0.39776 -2.55591,0.59664c-0.5344,0.72409 -0.84653,1.68509 -1.60319,2.17227c-0.56572,0.36424 -1.34317,0.22426 -2.0125,0.15569c-0.18908,-0.01937 -0.35125,-0.58602 -0.40319,-0.40319c-0.10421,0.36685 0.40914,0.80959 0.1976,1.1269c-0.33882,0.50823 -1.14721,0.50117 -1.57418,0.93797c-0.35861,0.36687 -0.32553,1.01382 -0.68829,1.37658c-0.36276,0.36276 -1.00366,0.33599 -1.37658,0.68829c-0.72601,0.68587 -0.62316,1.97336 -1.31798,2.6908c-0.57549,0.59423 -1.45915,0.8132 -2.06487,1.37658c-0.97181,0.90388 -0.59026,2.61426 -1.18287,3.80179c-0.27695,0.55498 -1.05046,0.75031 -1.32488,1.30655c-0.20504,0.41562 0.20917,0.97966 -0.00561,1.39034c-0.60146,1.15007 -2.31355,1.53203 -2.75317,2.75317c-0.23314,0.6476 0.25562,1.42581 0,2.06487c-0.24101,0.60251 -1.13244,0.77533 -1.37658,1.37658c-0.04129,0.10168 -0.06556,0.20736 -0.07792,0.31578c0.29301,0.07006 0.60854,0.19876 0.83557,0.05131c0.35165,-0.2284 0.13575,-0.88899 0.43861,-1.17898c1.20319,-1.15206 2.41077,-0.93884 3.81004,-1.6398c0.73961,-0.3705 1.32471,-1.00717 2.06487,-1.37658c0.68569,-0.34223 2.45957,-0.67038 3.24136,-1.25672c0.60127,-0.45095 0.97186,-1.21759 1.65469,-1.53164c0.83377,-0.38347 1.9563,0.45521 2.75317,0c0.56347,-0.32188 0.79119,-1.09654 1.37658,-1.37658c0.50671,-0.2424 1.12192,-0.05801 1.68287,-0.08701c1.53907,-0.51302 3.21203,-0.45886 4.81804,-0.68829c0.71823,-0.1026 1.34872,-0.57206 2.06487,-0.68829c1.25835,-0.20424 2.65503,0.59685 3.82346,0.08701c0.59477,-0.25953 0.78518,-1.10948 1.37658,-1.37658c0.28786,-0.13001 2.76544,-0.10479 3.27996,-0.10479c2.61015,0 6.04844,-0.58857 8.57577,0.03682c1.95719,0.48431 3.57913,2.24898 5.50633,2.75317c0.57788,0.15118 1.2775,-0.14784 1.78402,0.16877c0.43503,0.27192 0.26143,1.09201 0.68829,1.37658c0.3818,0.25453 0.91772,0 1.37658,0c0.22943,0.45886 0.27368,1.07444 0.68829,1.37658c0.26501,0.19312 0.65464,-0.26155 0.96914,-0.16877c0.73243,0.21608 1.46417,0.54596 2.0337,1.05466c0.38262,0.34175 0.32968,1.00972 0.68829,1.37658c0.42697,0.4368 1.23536,0.42974 1.57418,0.93797c0.21154,0.31732 -0.52383,0.92938 -0.1976,1.1269c0.43615,0.26409 1.0015,-0.48885 1.49039,-0.34413c0.86243,0.25529 1.46492,1.05802 2.27077,1.45749c0.60599,0.3004 1.2481,0.52008 1.88679,0.74737c0.2614,-0.68628 0.32732,-1.48651 0.83325,-2.00409c0.28347,-0.28999 0.92135,0.4301 1.20809,0.14335c0.28675,-0.28675 -0.43637,-0.92776 -0.14335,-1.20809c0.67674,-0.64744 1.75199,-0.67635 2.57681,-1.11999c0.72853,-0.39185 1.32349,-1.00963 2.06487,-1.37658c0.58239,-0.28826 1.35343,-0.16742 1.86478,-0.56843c1.4695,-1.15241 2.33051,-3.04312 3.95002,-3.97298c0.62457,-0.3586 1.54059,-0.16957 2.05184,-0.67682c0.56805,-0.56361 0.28459,-1.69967 0.88105,-2.23312c0.67457,-0.6033 2.03391,0.0621 2.64704,-0.60354c0.6279,-0.68167 0.86369,-1.73738 1.63806,-2.24658c0.56613,-0.37227 1.35076,-0.10859 2.02613,-0.16288c0.21762,0.06853 0.481,0.35565 0.65287,0.20559c0.38645,-0.33742 0.24209,-1.12342 0.68829,-1.37658c0.61183,-0.34713 1.39748,-0.17582 2.10029,-0.20559c1.62859,-0.06899 4.26085,0.46924 5.87835,0.03682c1.23241,-0.32947 2.48209,-0.71451 3.75773,-0.72512c1.39702,-0.01162 3.77683,0.10243 4.91454,-0.55459c0.58117,-0.33562 0.81308,-1.17015 1.44158,-1.4055c0.35409,-0.13259 4.05587,-0.10479 4.65654,-0.10479c2.44919,0 5.38704,-0.44587 7.79171,0.01778c1.95889,0.3777 3.26598,0.67052 5.28583,0.67052c0.56429,0.01227 1.15314,-0.12834 1.69286,0.03682c0.31657,0.09688 0.43582,0.88752 0.70698,0.69758c0.53156,-0.37234 0.38735,-1.28166 0.81888,-1.7664c0.323,-0.36282 0.96114,-0.29607 1.31422,-0.62969c0.64054,-0.60524 0.72324,-1.60787 1.11872,-2.3954c0.94162,-1.87509 2.13208,-3.87558 3.76908,-5.24089c0.61118,-0.50975 1.43243,-0.74867 1.99511,-1.3115c0.60452,-0.60468 0.78711,-1.57013 1.43895,-2.12348c0.63483,-0.53891 1.67713,-0.45139 2.27593,-1.03008c0.32272,-0.31187 -0.06349,-0.95317 0.17175,-1.33537c0.44942,-0.7302 1.09314,-1.34696 1.78819,-1.84905c1.28283,-0.92668 3.36417,-1.39015 4.56207,-2.53544c0.47021,-0.44956 0.4957,-1.29084 1.03512,-1.65448c0.31388,-0.2116 0.85617,0.47763 1.11724,0.20352c0.31646,-0.33227 -0.34841,-1.07798 0,-1.37658c0.90347,-0.77431 2.34602,-0.52253 3.41028,-1.05466c2.09156,-0.0455 3.64886,-0.39454 5.65441,-0.7148c0.01416,-0.00226 0.02829,-0.00457 0.04239,-0.00691c-1.33468,0.00202 -2.66937,0.00308 -4.00394,-0.0034c-1.46904,-0.00713 -2.90234,-0.45772 -4.35025,-0.70607c-4.00666,-0.68722 -8.31483,0.08723 -12.34604,-0.69071c-2.09871,-0.40501 -2.28913,-1.22164 -4.10662,-1.36505c-1.37698,-0.10865 -2.78024,0.21894 -4.14377,-0.00165c-0.29994,-0.04853 -4.89157,-1.21998 -5.35154,-1.3367c-1.68856,-0.01782 -3.41261,0.29041 -5.06566,-0.05454c-0.92463,-0.19295 -1.72069,-0.80623 -2.63577,-1.04031c-0.92648,-0.237 -1.94187,-0.05043 -2.84602,-0.36198c-0.81888,-0.28218 -1.39669,-1.06156 -2.20301,-1.37785c-0.3795,-0.14886 -0.82266,0.11373 -1.22247,0.03418c-0.71157,-0.14159 -1.34979,-0.56564 -2.06487,-0.68829c-1.61437,-0.2769 -3.29722,0.24461 -4.91381,-0.01905c-0.50633,-0.08258 -0.87436,-0.5836 -1.37658,-0.68829c-1.55777,-0.32473 -3.58171,0.03682 -5.19006,0.03682c-0.85244,0 -1.70488,0 -2.55732,0c0.03943,0.01421 0.07953,0.0266 0.12043,0.03682c1.86778,0.46695 4.57257,0.85311 6.10108,2.37264c0.51737,0.51433 0.53267,1.44389 1.11511,1.88317c0.45703,0.34469 1.13361,0.1602 1.70042,0.24031c0,0.45886 -0.31705,1.04488 0,1.37658c0.26351,0.27569 0.80959,-0.40914 1.1269,-0.1976c0.50823,0.33882 0.51702,1.13158 0.93797,1.57418c0.89673,0.94287 2.63719,0.65337 3.58481,1.54507c0.29533,0.2779 -0.4262,0.9175 -0.14335,1.20809c0.266,0.27328 0.82133,-0.42577 1.1269,-0.1976c0.89989,0.67193 0.80988,2.17952 1.62626,2.95077c0.37292,0.35231 1.01588,0.32348 1.37658,0.68829c0.41123,0.41591 0.46738,1.08746 0.83164,1.54507c0.56715,0.7125 1.38115,1.20595 1.93413,1.92951c0.24405,0.31934 0.06852,0.91913 0.40771,1.13474c0.3924,0.24944 1.0103,-0.25023 1.39488,0.01111c0.5052,0.34331 0.5014,1.14698 0.93797,1.57418c0.34719,0.33974 0.97448,0.28249 1.31422,0.62969c1.09133,1.11529 1.7043,2.50177 2.3851,3.85782l0.43043,0.33053c0,0 0.97339,0.97339 0,1.94678zM183.58744,99.87435c-0.15488,-0.31489 -0.7244,-0.09205 -1.01049,-0.29526c-1.33914,-0.95118 -2.28464,-2.74533 -3.59469,-3.76496c-0.39551,-0.18705 -0.76917,-0.37916 -1.13859,-0.56412c-0.86645,-0.25349 -2.17837,-0.5444 -2.69668,-1.01442c-0.23807,-0.047 -0.48661,-0.08382 -0.74835,-0.10858l-0.15377,-0.73225l-0.35377,0.17689l-0.67591,-1.35181c-0.10071,-0.1913 -0.15771,-0.40919 -0.15771,-0.6404c0,-0.76027 0.61632,-1.37658 1.37658,-1.37658c0.38013,0 0.72428,0.15408 0.97339,0.40319l0.95065,0.95065c0.19483,0.07533 0.39106,0.15158 0.5868,0.22847c1.47511,0.24321 2.81003,1.37487 4.21058,1.96394c0.80126,0.33701 1.73931,0.40575 2.44002,0.92014c0.36165,0.26549 0.17563,0.94648 0.51006,1.24554c0.17008,0.15209 0.42489,-0.1966 0.65287,-0.20559c0.63493,-0.02504 1.32999,-0.16906 1.90338,0.10479c0.37945,0.18122 0.68778,0.46769 0.97935,0.77895c0.53901,-0.40475 1.05789,-0.82269 1.35181,-1.41053c0.2754,-0.5508 -0.17297,-1.42691 0.29841,-1.82318c0.57192,-0.48079 2.84287,-0.40319 3.72656,-0.40319c2.75317,0 5.50633,0 8.2595,0c4.58861,0 9.17722,0 13.76583,0c1.83627,0 4.03262,-0.30858 5.8226,0.03682c0.50373,0.0972 0.87089,0.6019 1.37658,0.68829c1.55162,0.26507 3.1685,-0.27123 4.72227,-0.01905c0.71615,0.11623 1.35357,0.54537 2.06487,0.68829c0.50036,0.10054 1.05293,-0.14529 1.53069,0.03418c0.86058,0.32328 1.49095,1.127 2.35981,1.4273c0.83095,0.28719 1.76912,0.07713 2.62108,0.2942c0.86333,0.21997 1.6067,0.81292 2.47673,1.00469c1.59482,0.35151 3.26637,-0.00045 4.89923,0.02766c1.77892,0.43879 3.52561,1.0294 5.33231,1.33426c1.35279,0.22827 2.74946,-0.12599 4.11573,-0.00165c1.50638,0.13709 2.83161,1.11345 4.31738,1.39711c0.87282,0.16664 1.78408,-0.1085 2.66574,0.00218c0.90926,0.11414 1.75767,0.55351 2.66698,0.66724c2.26385,0.28317 4.67823,-0.35886 6.93522,0.00746c0.71615,0.11623 1.34979,0.56564 2.06487,0.68829c3.885,0.66636 7.65115,-0.21028 11.48045,0.2603v-0.27807h1.37658v0.50959c0.42283,0.09167 0.84668,0.20379 1.2718,0.3402l-0.72041,1.07818l0.42201,0.42201l-1.37658,1.37658l-0.14819,-0.14819l-0.29841,0.4466c-3.84535,0.16815 -7.30006,2.26909 -11.22318,2.13284c-0.45886,0.22943 -0.86951,0.61041 -1.37658,0.68829c-0.26601,0.04085 -0.56334,-0.58558 -0.71947,-0.36637c-0.26619,0.37376 0.33005,1.0578 0,1.37658c-0.39525,0.38176 -1.17688,-0.09855 -1.63592,0.20352c-0.34277,0.22555 -0.12986,0.87194 -0.42756,1.15432c-2.04576,1.94042 -2.78391,1.54379 -4.98792,2.91527c-0.83548,0.51989 -0.68802,1.90759 -1.37455,2.61257c-0.70035,0.71918 -1.89084,0.77456 -2.64908,1.43243c-0.60386,0.52393 -0.74884,1.44104 -1.31422,2.00627c-0.60722,0.60706 -1.46993,0.89816 -2.13463,1.44167c-2.47549,2.02411 -2.69267,5.36766 -4.74828,7.50612c-0.37451,0.3896 -1.04164,0.38057 -1.43895,0.74689c-0.74842,0.69007 -0.99677,1.96663 -1.93428,2.36335c-0.9738,0.41206 -2.04974,-0.67888 -3.10649,-0.64218c-2.13067,0 -3.67596,-0.27913 -5.72683,-0.70607c-2.21463,-0.46103 -5.08136,0.01778 -7.3507,0.01778c-1.20149,0 -2.50165,-0.58512 -3.60295,-0.10479c-0.57458,0.2506 -0.75456,1.06015 -1.31158,1.34767c-2.34858,1.21228 -5.41371,0.27799 -7.84673,0.78517c-1.02919,0.21454 -2.01818,0.71481 -3.06944,0.72512c-1.60594,0.01574 -3.21494,0.09676 -4.81804,0c-0.22774,-0.01375 -0.481,-0.35565 -0.65287,-0.20559c-0.38645,0.33742 -0.24209,1.12342 -0.68829,1.37658c-0.61183,0.34713 -1.4002,0.13706 -2.10029,0.20559c-0.81984,-0.18368 -1.22779,1.14718 -1.84214,1.72029c-0.23854,0.22252 -0.51318,0.40568 -0.80694,0.55739c0.5842,0.38639 0.5842,1.16379 0.5842,1.16379v0.68829c0,0.47039 -0.29154,3.53155 0.03542,3.64705c0.28078,0.09919 0.58625,-0.26677 0.87337,-0.18782c1.03206,0.28379 2.22768,0.4626 2.96111,1.2422c0.92615,0.98444 -0.09604,3.4249 0.22302,4.61838c0.43578,1.6301 1.11535,3.18691 1.39563,4.91381c0.36844,2.27007 -0.32858,2.72662 0.66924,4.72227c0.01227,0.56429 0.13401,1.13687 0.03682,1.69286c-0.03273,0.18723 -0.57879,0.33046 -0.40319,0.40319c0.42393,0.1756 1.14465,-0.39593 1.37658,0c1.07351,1.83259 -0.03812,4.53069 0.53503,6.4837c0.53222,1.81355 1.60473,3.47106 1.92272,5.33416c0.19387,1.13586 0.48735,2.25322 0.68083,3.38915c0.05,0.29355 -0.36829,0.63652 -0.18782,0.87337c0.30926,0.40588 1.11188,0.24075 1.37146,0.68006c0.34335,0.5811 0.09468,1.34964 0.21974,2.01291c0.30161,1.59961 1.09247,3.08581 1.34979,4.69315c0.09278,0.57953 -0.31027,1.21579 -0.08701,1.75858c0.24685,0.60014 1.14052,0.77211 1.37658,1.37658c0.28771,0.73673 -0.04916,1.59205 0.08701,2.37117c0.29018,1.66031 0.74088,3.59526 1.28957,5.20004c0.7349,1.53774 0.31959,3.84081 1.17858,5.17176c0.25442,0.39421 0.96623,0.23449 1.28168,0.5818c0.97838,1.07716 1.5658,3.71772 1.76396,4.92941c0.05651,0.34552 -0.24687,0.73778 -0.08281,1.04707c0.30472,0.57447 1.01819,0.84086 1.37323,1.38568c0.59311,0.91014 1.13028,1.88313 1.43623,2.9255c0.0758,0.25823 -0.58558,0.56334 -0.36637,0.71947c0.37376,0.26619 1.07798,-0.34841 1.37658,0c0.65892,0.76884 0.19272,2.13611 0.83164,2.92165c0.40947,0.50343 0.98857,0.85643 1.37658,1.37658c1.07281,1.43816 0.4619,1.82382 1.85916,3.21436c0.45272,0.45054 1.31002,0.44765 1.63655,0.99657c0.35962,0.60457 0.13706,1.4002 0.20559,2.10029c0,0 0,1.37658 -1.37658,1.37658c-1.37658,0 -1.37658,-1.37658 -1.37658,-1.37658c0.06853,-0.21762 0.35651,-0.48176 0.20559,-0.65287c-0.26008,-0.29486 -0.83926,-0.10134 -1.11662,-0.38001c-1.0145,-1.01931 -1.40449,-2.52047 -2.27059,-3.66855c-0.39081,-0.51805 -1.0024,-0.8464 -1.37658,-1.37658c-0.399,-0.56536 -0.76855,-1.18812 -0.91131,-1.86521c-0.05552,-0.26334 0.58558,-0.56334 0.36637,-0.71947c-0.37376,-0.26619 -1.07798,0.34841 -1.37658,0c-0.44824,-0.52301 -0.14155,-1.38261 -0.36637,-2.0337c-0.5202,-1.50654 -2.00748,-2.51131 -2.69687,-3.94832c-0.64128,-1.33672 0.21557,-3.82415 -1.07201,-5.03617c-0.40592,-0.3821 -1.18972,-0.31376 -1.47148,-0.79479c-1.26568,-2.16075 -0.52659,-3.86222 -1.57459,-5.8409c-0.58294,-1.78284 -1.17282,-3.96362 -1.46359,-5.81262c-0.09118,-0.57979 0.31027,-1.21579 0.08701,-1.75858c-0.24685,-0.60014 -1.14052,-0.77211 -1.37658,-1.37658c-0.28771,-0.73673 0.04767,-1.5918 -0.08701,-2.37117c-0.28204,-1.63211 -1.1314,-3.13839 -1.36227,-4.77853c-0.04285,-0.30437 0.36327,-0.65892 0.17863,-0.90466c-0.30983,-0.41235 -1.11336,-0.25604 -1.38171,-0.69652c-0.32762,-0.53778 -0.05128,-1.26505 -0.18782,-1.87979c-0.25746,-1.15921 -0.50986,-2.32095 -0.69575,-3.49377c-0.27555,-1.73844 -1.375,-3.25123 -1.84658,-4.94702c-0.03564,-0.12817 -0.34714,-3.42667 -0.22861,-4.16896c0.06116,-0.383 0.66134,-0.80201 0.40319,-1.09148c-0.30541,-0.34246 -1.09955,0.36579 -1.37658,0c-0.53231,-0.70284 -0.39994,-2.4437 -0.36637,-3.41028c-0.92975,-1.8595 -0.37152,-2.95593 -0.70734,-4.91381c-0.28834,-1.68108 -0.98221,-3.13352 -1.35753,-4.72227c-0.00981,-0.04151 -0.0669,-2.84391 -0.03682,-3.06944c0.02767,-0.20748 0.42514,-0.44326 0.25984,-0.57168c-0.8069,-0.6269 -2.23481,0.29594 -3.04843,-0.3222c-1.91001,-1.45112 -1.34116,-3.99581 -1.34116,-5.98903v-0.68829c0,0 0,-0.57077 0.36753,-0.97726c-0.09872,-0.0418 -0.18616,-0.04922 -0.25092,0.02912c-0.41633,0.50363 -0.02525,1.44297 -0.49553,1.89663c-0.70346,0.67861 -1.84069,0.68492 -2.68717,1.17364c-1.53373,0.88549 -2.29871,2.72995 -3.70021,3.81265c-0.63436,0.49006 -1.54931,0.44705 -2.26497,0.80815c-0.73853,0.37265 -1.31091,1.03623 -2.06487,1.37658c-0.4782,0.21587 -1.19328,-0.12541 -1.55294,0.25659c-0.35456,0.37659 0.22239,1.17933 -0.14335,1.54507c-0.36574,0.36574 -1.1742,-0.21718 -1.54507,0.14335c-0.19019,0.18488 -0.21204,0.45417 -0.20984,0.73904l0.70885,0.35443c0,0 1.23125,0.61563 0.61563,1.84688c-0.61563,1.23125 -1.84688,0.61563 -1.84688,0.61563l-0.96624,-0.48312c-0.03686,0.0405 -0.07253,0.08196 -0.10673,0.12461c-1.11023,1.38444 -1.80137,2.9907 -2.58648,4.56093c0,0 -0.61563,1.23125 -1.84688,0.61563c-1.23125,-0.61563 -0.61563,-1.84688 -0.61563,-1.84688c0.78204,-1.56408 1.48953,-3.11064 2.50755,-4.52996c-0.40623,-0.14779 -0.80759,-0.30635 -1.19281,-0.50072c-0.67435,-0.34024 -1.14934,-1.03698 -1.85898,-1.29567c-0.83357,-0.30387 -1.91064,0.162 -2.63935,-0.34413c-0.44851,-0.31151 0.10531,-1.1719 -0.1976,-1.62626c-0.23259,-0.34889 -0.87832,-0.14634 -1.17898,-0.43861c-0.36785,-0.3576 -0.36092,-0.98159 -0.68829,-1.37658c-0.43451,-0.52426 -2.34533,-0.39183 -2.50349,-0.49069c-0.43503,-0.27192 -0.45886,-0.91772 -0.68829,-1.37658c-0.45886,0 -0.99479,0.25453 -1.37658,0c-0.42686,-0.28457 -0.27368,-1.07444 -0.68829,-1.37658c-0.26501,-0.19312 -0.6501,0.24452 -0.96914,0.16877c-1.95874,-0.46507 -3.57927,-2.26367 -5.50633,-2.75317c-2.27334,-0.57746 -5.57682,0.03682 -7.94322,0.03682c-0.74294,0 -1.58126,-0.4733 -2.22637,-0.10479c-0.56347,0.32188 -0.76864,1.14963 -1.37658,1.37658c-1.3373,0.49922 -3.05595,-0.1497 -4.43604,0.08701c-0.71508,0.12265 -1.34664,0.58569 -2.06487,0.68829c-1.60601,0.22943 -3.27897,0.17527 -4.81804,0.68829c-0.35676,-0.029 -0.75364,-0.2539 -1.07029,-0.08701c-0.57408,0.30256 -0.78518,1.10948 -1.37658,1.37658c-0.83638,0.37774 -1.95697,-0.45638 -2.75317,0c-0.47509,0.27232 -0.6604,0.89297 -1.09848,1.22153c-1.04988,0.78741 -2.4682,0.90866 -3.64156,1.49645c-0.73961,0.3705 -1.32471,1.00717 -2.06487,1.37658c-0.97479,0.48651 -2.32207,0.32394 -3.07287,1.11337c-0.42095,0.4426 -0.4329,1.23067 -0.93797,1.57418c-0.37942,0.25805 -0.94487,-0.1555 -1.37658,0c-0.66285,0.23876 0.17155,1.47716 -0.14021,2.10897c-0.33257,0.674 -1.08757,1.04832 -1.53164,1.65469c-0.72128,0.98489 -1.32434,2.07963 -2.20822,2.92165c-0.15559,0.14822 -0.34906,0.26522 -0.53335,0.38857c-0.10204,0.52065 -0.21272,1.03913 -0.38957,1.53299c-0.00502,0.04889 -0.02027,0.09389 -0.04976,0.13366c-0.04449,0.11497 -0.09292,0.22846 -0.14604,0.34019l-0.67495,1.34991c-0.22073,0.46562 -0.69505,0.78763 -1.24459,0.78763c-0.76027,0 -1.37658,-0.61632 -1.37658,-1.37658c0,-0.23121 0.057,-0.4491 0.15771,-0.6404l0.5442,-1.08839c-0.26805,-0.43814 -0.14331,-1.09238 0.09117,-1.55117c0.15148,-0.29639 0.33363,-0.55201 0.53488,-0.7826c0.0241,-0.12936 0.05173,-0.2575 0.08545,-0.38346c0.47974,-1.79186 2.14116,-2.62952 2.02805,-4.50177c0.06853,-0.7001 -0.14154,-1.48847 0.20559,-2.10029c0.25317,-0.4462 1.14749,-0.22926 1.37658,-0.68829c0.27845,-0.55793 -0.32899,-1.28765 -0.10081,-1.86796c0.23747,-0.60392 1.13558,-0.77407 1.37658,-1.37658c0.25562,-0.63906 -0.27232,-1.43275 0,-2.06487c0.5135,-1.19195 2.20323,-1.57758 2.75317,-2.75317c0.19249,-0.41148 -0.20623,-0.95525 -0.00561,-1.36283c0.32098,-0.65211 1.14383,-0.96118 1.46939,-1.61102c1.00013,-1.99631 -0.02307,-2.65119 1.52919,-4.2933c0.56826,-0.60115 1.46883,-0.80297 2.06487,-1.37658c0.75902,-0.73045 0.70616,-2.05515 1.43519,-2.81553c0.35505,-0.37032 1.01382,-0.32553 1.37658,-0.68829c0.36276,-0.36276 0.32044,-1.01899 0.68829,-1.37658c0.30066,-0.29227 0.94639,-0.08973 1.17898,-0.43861c0.30291,-0.45436 -0.22951,-1.28601 0.1976,-1.62626c0.62163,-0.49521 1.55774,-0.33975 2.34997,-0.40319c0.25148,-0.02014 0.55284,0.32412 0.74066,0.15569c0.59362,-0.53234 0.87625,-1.33239 1.31438,-1.99858c0.92867,-0.24628 1.92778,-0.30698 2.78602,-0.73884c0.60145,-0.30265 0.8555,-1.09816 1.45879,-1.39713c0.30093,-0.14913 4.08217,-0.95644 4.77679,-1.4282c0.80792,-0.54871 1.25802,-1.5536 2.10762,-2.03526c0.5474,-0.31034 1.27743,-0.02406 1.87461,-0.22238c1.37635,-0.45707 2.46962,-1.67807 3.89702,-1.93456c0.26488,-0.0476 0.56334,0.58558 0.71947,0.36637c0.26619,-0.37376 -0.38643,-1.12914 0,-1.37658c0.771,-0.49369 1.83744,-0.1303 2.72199,-0.36637c1.48702,-0.39685 2.64675,-1.65324 4.12975,-2.06487c0.66322,-0.18409 1.38995,0.13499 2.06487,0c0.50306,-0.10061 0.8773,-0.57034 1.37658,-0.68829c0.99581,-0.23525 2.07151,-0.2629 3.06944,-0.03682c0.18537,0.04199 0.33046,0.57879 0.40319,0.40319c0.1756,-0.42393 -0.36579,-1.09955 0,-1.37658c0.63482,-0.48079 2.80656,-0.40319 3.72656,-0.40319c0.3639,0 3.19261,0.30003 3.44426,-0.01167c0.49558,-0.61385 0.50938,-1.51227 0.94533,-2.16981c0.30259,-0.4564 0.97663,-0.60869 1.22153,-1.09848c0.24775,-0.49549 -0.23667,-1.26297 0.15505,-1.65469c0.92009,-0.92009 2.70227,-0.58891 3.58481,-1.54507c0.27138,-0.29402 0.28076,-0.75655 0.47705,-1.10373c0.07049,-0.22363 0.11157,-0.44151 0.01364,-0.64062z" fill="#ffffff" stroke="none" stroke-width="0.5"/><text transform="translate(-26.5,379.16666) scale(0.5,0.5)" font-size="40" xml:space="preserve" fill="#ffffff" fill-rule="nonzero" stroke="none" stroke-width="1" stroke-linecap="butt" stroke-linejoin="miter" stroke-miterlimit="10" stroke-dasharray="" stroke-dashoffset="0" font-family="Pixel" font-weight="normal" text-anchor="start" style="mix-blend-mode: normal"><tspan x="0" dy="0">The End :)</tspan></text></g></g></svg>