<svg version="1.1" xmlns="http://www.w3.org/2000/svg" xmlns:xlink="http://www.w3.org/1999/xlink" width="157.00863" height="65.15835" viewBox="0,0,157.00863,65.15835"><g transform="translate(-147.37635,-141.29424)"><g data-paper-data="{&quot;isPaintingLayer&quot;:true}" fill="#9966ff" fill-rule="nonzero" stroke="none" stroke-width="0.5" stroke-linecap="butt" stroke-linejoin="miter" stroke-miterlimit="10" stroke-dasharray="" stroke-dashoffset="0" style="mix-blend-mode: normal"><path d="M212.50896,164.87135c-2.23607,1.11803 -3.3541,-1.11803 -3.3541,-1.11803l-1.11793,-2.82604c0,-1.13867 -0.04312,-2.27816 0,-3.41601c0.02041,-0.53846 0.45495,-1.13592 0.1903,-1.6053c-1.01393,-1.79833 -2.889,-2.98043 -4.04044,-4.69397c0,0 -1.38675,-2.08013 0.69338,-3.46688c2.08013,-1.38675 3.46688,0.69338 3.46688,0.69338c1.31314,1.98815 3.49257,3.39465 4.49958,5.55406c0.25179,0.53994 0.1903,6.33392 0.1903,6.93472l0.59007,0.58997c0,0 1.11803,2.23607 -1.11803,3.3541z"/><path d="M279.38517,156.06729c-1.11803,2.23607 -3.3541,1.11803 -3.3541,1.11803l-2.6701,-1.70332c-1.69474,-2.5421 -3.58334,-5.0484 -5.12401,-7.68602c-0.3232,-0.55332 -0.27309,-1.39101 -0.80752,-1.74457c-0.393,-0.26 -0.92157,0.19721 -1.38236,0.29581c0,0 -2.5,0 -2.5,-2.5c0,-2.5 2.5,-2.5 2.5,-2.5c1.24722,0.0986 2.65882,-0.33089 3.74165,0.29581c1.23161,0.71282 1.77208,2.22818 2.60849,3.37944c1.80315,2.48195 3.42215,5.13322 5.12401,7.68602l0.74591,0.00468c0,0 2.23607,1.11803 1.11803,3.3541z"/><path d="M300.27059,148.30754c2.37171,-0.79057 3.16228,1.58114 3.16228,1.58114l0.95001,2.95212c0.03682,3.37873 -0.41803,5.94524 -0.84045,9.24594c-0.34442,2.69121 0.75005,6.1985 -0.04815,8.80895c-1.66031,5.42991 -7.04552,8.135 -11.09618,11.607c-4.75663,4.07711 -9.318,7.74023 -15.00463,10.56046c-2.81501,1.39608 -5.07861,1.67803 -7.77301,3.45651c-3.97629,1.03342 -9.04208,1.49982 -12.72304,3.37551c-2.51159,1.27982 -5.19114,2.15407 -7.68602,3.41601c-1.91952,0.97092 -3.70416,2.40676 -5.82194,2.78394c-4.40792,0.78505 -9.58029,0.03228 -14.06449,0.03228c-8.21969,0 -16.65783,0.64073 -24.7234,-0.98932c-1.05968,-0.54652 -2.01463,-1.38318 -3.17905,-1.63957c-1.35698,-0.29879 -2.80789,0.30403 -4.1684,0.02177c-6.08735,-1.26295 -11.80604,-5.74759 -17.00809,-8.83264c-1.1653,-0.69107 -2.52051,-1.05472 -3.62297,-1.84217c-8.03379,-5.73834 -13.7761,-14.4364 -19.62838,-22.25668c-3.11954,-4.16857 -6.52057,-7.30229 -9.23565,-11.79128c0,0 -1.28624,-2.14373 0.85749,-3.42997c2.14373,-1.28624 3.42997,0.85749 3.42997,0.85749c2.58464,4.34713 5.9353,7.3551 8.96733,11.38945c5.559,7.39668 10.93178,15.74539 18.53279,21.17477c3.49847,2.49894 7.8753,4.60811 11.70391,6.60099c1.48144,0.77112 5.34184,2.91219 6.94914,3.22025c1.43118,0.2743 2.94966,-0.29688 4.37162,0.02177c1.32124,0.29607 2.43531,1.1843 3.65297,1.77644c7.45425,1.47043 15.50945,0.71869 23.10072,0.71869c4.26928,0 9.05427,0.65944 13.26358,0.03228c2.26434,-0.33737 2.21261,-1.24474 4.42609,-2.34008c1.61363,-0.7985 3.51744,-0.89538 5.12401,-1.708c0.91589,-0.46326 1.64099,-1.25503 2.56201,-1.708c3.85632,-1.89661 8.73939,-2.46931 12.89703,-3.45651c2.52824,-1.70337 4.97359,-2.05001 7.59903,-3.37551c5.35324,-2.70269 9.53784,-6.08394 14.03144,-9.93559c1.99267,-1.708 3.97998,-3.42228 5.97802,-5.12401c1.29109,-1.09962 3.01007,-2.1199 3.42186,-3.76504c0.60913,-2.43355 -0.35126,-5.79215 -0.04815,-8.2711c0.34636,-2.8326 0.82478,-4.97 0.86755,-7.83411l-0.75799,-2.17189c0,0 -0.79057,-2.37171 1.58114,-3.16228z"/></g></g></svg>