<svg version="1.1" xmlns="http://www.w3.org/2000/svg" xmlns:xlink="http://www.w3.org/1999/xlink" width="454.21931" height="495.60714" viewBox="0,0,454.21931,495.60714"><g transform="translate(-114.28069,47.33332)"><g data-paper-data="{&quot;isPaintingLayer&quot;:true}" fill="#9966ff" fill-rule="nonzero" stroke="none" stroke-width="0" stroke-linecap="butt" stroke-linejoin="miter" stroke-miterlimit="10" stroke-dasharray="" stroke-dashoffset="0" style="mix-blend-mode: normal"><path d="M170.20727,361.99217l36.40475,-206.93262l306.1807,86.28166l-36.40475,206.93262z"/><path d="M307.5,63.66666v-110h227v110z"/><path d="M128.5,90.66669l1,-138h227v110c0,0 -168.6058,-0.87814 -190.49167,-0.97207c-3.70999,-0.01592 -37.50833,28.97207 -37.50833,28.97207z"/><path d="M460.5,277.66668v-224h108v224z"/><path d="M355.82483,223.50323l-241.54414,0.20866l12.89448,-69.8818l234.54414,5.79134c0,0 7.14,11.40731 6.96636,15.96432c-0.42458,11.14284 -12.86084,47.91748 -12.86084,47.91748z"/></g></g></svg>