<svg version="1.1" xmlns="http://www.w3.org/2000/svg" xmlns:xlink="http://www.w3.org/1999/xlink" width="514.25497" height="457.07652" viewBox="0,0,514.25497,457.07652"><g transform="translate(8.75497,83.33333)"><g data-paper-data="{&quot;isPaintingLayer&quot;:true}" fill="#9966ff" fill-rule="nonzero" stroke="none" stroke-width="0" stroke-linecap="butt" stroke-linejoin="miter" stroke-miterlimit="10" stroke-dasharray="" stroke-dashoffset="0" style="mix-blend-mode: normal"><path d="M344.19232,-11.33332c0,39.7645 -33.06205,72 -73.84616,72c-40.78411,0 -73.84616,-32.2355 -73.84616,-72c0,-39.7645 33.06205,-72 73.84616,-72c40.78411,0 73.84616,32.2355 73.84616,72z"/><path d="M263.50001,60.66668v-44h209v44z"/><path d="M486.50001,180.66668c0,0 -14.41286,-21.31318 -31.30549,-55.34474c-8.84104,-17.81099 -27.26567,-29.44919 -32.41635,-38.80834c-8.59325,-15.61457 -66.27817,-28.84691 -66.27817,-28.84691l149,-19v89z"/><path d="M174.50001,341.66671v-158c0,0 92.56291,0 106.07835,0c3.19329,0 4.08832,1.83334 4.08832,1.83334c0,0 -0.31028,0.14419 -0.27409,3.79125c0.01502,1.51404 -1.96768,3.45374 -1.94883,5.4399c0.00806,0.84994 2.68309,2.07225 2.69167,2.99666c0.02267,2.44226 -2.28638,3.96518 -2.26152,6.83578c0.01801,2.08032 3.86967,5.08905 3.88791,7.33427c0.01671,2.05794 -4.6333,5.17455 -4.61703,7.3304c0.01612,2.13483 4.69853,3.30812 4.71364,5.50102c0.01105,1.6048 -5.81159,5.38676 -5.80135,7.00516c0.01687,2.66723 5.86581,3.17622 5.87964,5.82719c0.01803,3.45646 -6.30027,7.03761 -6.2894,10.33676c0.01235,3.74619 6.35269,7.17699 6.35269,10.51829c0,9.24087 1.76917,6.72906 -15.78956,8.06457c-20.452,1.55558 -57.21044,1.43543 -57.21044,1.43543c0,0 1.34335,39.7194 -0.2511,61.20943c-0.99466,13.40603 2.79722,11.79057 -4.9989,11.79057c-16.02006,0 -34.25,0.75 -34.25,0.75z"/><path d="M-0.49999,348.66671c0,0 -13.8009,-194.74888 -5.7138,-274.46371c1.65522,-16.3156 20.92528,-9.53793 29.0798,-6.29373c2.77091,1.10238 0.42539,3.86069 0.84289,2.38046c2.43422,-8.63042 8.17666,49.17865 13.21688,88.21188c2.30655,17.86274 6.57423,34.1651 6.57423,34.1651l131.75,-8.5c0,0 10.81318,144.75332 -1.54753,169.08025c-17.28823,34.02471 -94.20247,15.41975 -94.20247,15.41975z"/></g></g></svg>