<svg version="1.1" xmlns="http://www.w3.org/2000/svg" xmlns:xlink="http://www.w3.org/1999/xlink" width="545.87251" height="415.33334" viewBox="0,0,545.87251,415.33334"><g transform="translate(67,29.66663)"><g data-paper-data="{&quot;isPaintingLayer&quot;:true}" fill="#9966ff" fill-rule="nonzero" stroke="none" stroke-width="0" stroke-linecap="butt" stroke-linejoin="miter" stroke-miterlimit="10" stroke-dasharray="" stroke-dashoffset="0" style="mix-blend-mode: normal"><path d="M-8.12749,338.33338c0,0 68.44147,9.27631 92.2213,-13.66027c23.20615,-22.38324 52.7787,-64.33973 52.7787,-64.33973c0,0 36.28653,-1 68,-1c12.95316,0 40.24154,-1.47465 62.82369,-3.24675c19.6275,-1.54024 33.74324,-20.30519 56.35022,-21.52192c75.38408,-4.05722 154.82609,-6.23133 154.82609,-6.23133v136c0,0 -445.49673,21.33334 -482,21.33334c-4.7224,0 -5,-47.33334 -5,-47.33334z"/><path d="M104.87251,97.66671l79.33333,-120l55.66667,-7.33333c0,0 2.20472,4.59396 -1.89053,18.7184c-1.19523,4.12231 -16.25232,1.72327 -19.52503,8.36492c-1.40796,2.85732 9.3479,14.51844 7.85886,17.32905c-1.52533,2.87909 -15.0453,-1.34729 -16.46183,1.15499c-2.68743,4.74733 6.99749,15.51803 5.72469,17.17945c-1.97286,2.57524 -14.29958,-4.1082 -16.0215,-1.9559c-1.45714,1.82132 7.66075,12.52501 6.32862,14.16826c-6.49373,8.0103 -11.80013,14.58451 -18.82283,26.34843c-1.49034,2.49651 -18.29766,19.81741 -19.38206,21.91727c-4.45294,-1.54028 -5.22505,-1.14154 -5.22505,-1.14154c0,0 -48.97786,28.08287 -55.07124,23.29522c-7.57964,-5.95543 -2.51209,-18.04522 -2.51209,-18.04522z"/><path d="M-57,357.13691l-10,-339l66,-24l51,366z"/></g></g></svg>